<svg width="52" height="49" viewBox="0 0 52 49" fill="none" xmlns="http://www.w3.org/2000/svg">
<path d="M48.9061 13.3105H3.09377C2.28491 13.3105 1.50917 13.6319 0.937219 14.2038C0.365265 14.7758 0.0439453 15.5515 0.0439453 16.3604V45.9502C0.0439453 46.7591 0.365265 47.5348 0.937219 48.1067C1.50917 48.6787 2.28491 49 3.09377 49H48.9061C49.7149 49 50.4907 48.6787 51.0626 48.1067C51.6346 47.5348 51.9559 46.7591 51.9559 45.9502V16.3604C51.9559 15.5515 51.6346 14.7758 51.0626 14.2038C50.4907 13.6319 49.7149 13.3105 48.9061 13.3105ZM48.7114 45.7555H3.28844V16.555H48.7114V45.7555Z" fill="url(#paint0_linear_494_41)"/>
<path d="M45.6937 1.95526C45.6937 1.52501 45.5228 1.11238 45.2186 0.808153C44.9144 0.503923 44.5017 0.333008 44.0715 0.333008H8.38201C7.95177 0.333008 7.53914 0.503923 7.23491 0.808153C6.93068 1.11238 6.75977 1.52501 6.75977 1.95526V3.5775H45.6937V1.95526Z" fill="url(#paint1_linear_494_41)"/>
<path d="M48.9054 8.44354C48.9054 8.01329 48.7345 7.60067 48.4302 7.29643C48.126 6.9922 47.7134 6.82129 47.2831 6.82129H5.10467C4.67442 6.82129 4.2618 6.9922 3.95757 7.29643C3.65334 7.60067 3.48242 8.01329 3.48242 8.44354V10.0658H48.9054V8.44354Z" fill="url(#paint2_linear_494_41)"/>
<path d="M17.5958 40.5481C18.0454 40.8397 18.5687 40.9972 19.1045 41.0024C19.4905 41.0005 19.8719 40.9176 20.2239 40.759L36.0732 33.686C36.5632 33.4731 36.9803 33.1218 37.2732 32.675C37.5662 32.2283 37.7222 31.7058 37.7222 31.1716C37.7222 30.6373 37.5662 30.1148 37.2732 29.6681C36.9803 29.2214 36.5632 28.87 36.0732 28.6571L20.2239 21.5841C19.8044 21.3978 19.3452 21.3191 18.8877 21.3552C18.4302 21.3913 17.9889 21.541 17.6039 21.7907C17.2189 22.0404 16.9022 22.3822 16.6827 22.7852C16.4632 23.1882 16.3477 23.6396 16.3467 24.0985V38.2446C16.3475 38.702 16.4621 39.1521 16.6802 39.5542C16.8982 39.9563 17.2129 40.2979 17.5958 40.5481ZM18.6178 24.0985C18.6173 24.0171 18.638 23.9369 18.6778 23.8658C18.7176 23.7947 18.7752 23.7351 18.8449 23.693C18.9299 23.6695 19.0196 23.6695 19.1045 23.693C19.1687 23.6799 19.2349 23.6799 19.2992 23.693L35.1485 30.7498C35.238 30.7863 35.314 30.8495 35.3662 30.9308C35.4184 31.0121 35.4444 31.1075 35.4405 31.204C35.4434 31.2983 35.4168 31.3911 35.3645 31.4696C35.3121 31.5481 35.2367 31.6084 35.1485 31.642L19.2992 38.715C19.2301 38.7549 19.1518 38.7759 19.0721 38.7759C18.9923 38.7759 18.914 38.7549 18.8449 38.715C18.7772 38.6707 18.7213 38.6106 18.6817 38.54C18.6422 38.4694 18.6203 38.3903 18.6178 38.3094V24.0985Z" fill="url(#paint3_linear_494_41)"/>
<defs>
<linearGradient id="paint0_linear_494_41" x1="-5.63432" y1="36.3601" x2="57.1102" y2="30.6308" gradientUnits="userSpaceOnUse">
<stop stop-color="#BB6FFB"/>
<stop offset="0.5" stop-color="#FC5F67"/>
<stop offset="1" stop-color="#FFB054"/>
</linearGradient>
<linearGradient id="paint1_linear_494_41" x1="2.50107" y1="2.42842" x2="32.7731" y2="-20.3759" gradientUnits="userSpaceOnUse">
<stop stop-color="#BB6FFB"/>
<stop offset="0.5" stop-color="#FC5F67"/>
<stop offset="1" stop-color="#FFB054"/>
</linearGradient>
<linearGradient id="paint2_linear_494_41" x1="-1.48606" y1="8.9167" x2="29.7479" y2="-18.5337" gradientUnits="userSpaceOnUse">
<stop stop-color="#BB6FFB"/>
<stop offset="0.5" stop-color="#FC5F67"/>
<stop offset="1" stop-color="#FFB054"/>
</linearGradient>
<linearGradient id="paint3_linear_494_41" x1="14.0086" y1="34.041" x2="39.9392" y2="32.2708" gradientUnits="userSpaceOnUse">
<stop stop-color="#BB6FFB"/>
<stop offset="0.5" stop-color="#FC5F67"/>
<stop offset="1" stop-color="#FFB054"/>
</linearGradient>
</defs>
</svg>
