<svg width="64" height="52" viewBox="0 0 64 52" fill="none" xmlns="http://www.w3.org/2000/svg">
<path d="M21.6 0.072454L25.6 6.07246C23.4667 9.27246 21.5333 12.6725 19.8 16.2725C18.0667 19.8725 17.0667 23.5391 16.8 27.2725L27.6 29.4725V51.0725H0.2V35.4725C0.2 26.5391 2.2 19.2725 6.2 13.6725C10.3333 8.07246 15.4667 3.53912 21.6 0.072454ZM57.6 0.072454L61.6 6.07246C59.4667 9.27246 57.5333 12.6725 55.8 16.2725C54.0667 19.8725 53.0667 23.5391 52.8 27.2725L63.6 29.4725V51.0725H36.2V35.4725C36.2 26.5391 38.2 19.2725 42.2 13.6725C46.3333 8.07246 51.4667 3.53912 57.6 0.072454Z" fill="url(#paint0_linear_359_451)"/>
<defs>
<linearGradient id="paint0_linear_359_451" x1="-16.5" y1="30.7725" x2="66.2953" y2="18.8923" gradientUnits="userSpaceOnUse">
<stop stop-color="#BB6FFB"/>
<stop offset="0.5" stop-color="#FC5F67"/>
<stop offset="1" stop-color="#FFB054"/>
</linearGradient>
</defs>
</svg>
