<svg width="21" height="21" viewBox="0 0 21 21" fill="none" xmlns="http://www.w3.org/2000/svg">
<path d="M10.4743 6.35053C10.7681 6.34996 11.0529 6.45249 11.2791 6.64033L17.5663 11.6803C17.823 11.8942 17.9845 12.2015 18.0152 12.5347C18.0458 12.8679 17.9432 13.1996 17.7297 13.4569C17.5163 13.7142 17.2096 13.8761 16.8771 13.9068C16.5446 13.9375 16.2135 13.8346 15.9567 13.6207L10.4743 9.23593L4.99193 13.4191C4.86331 13.5238 4.71532 13.602 4.55645 13.6491C4.39759 13.6963 4.23099 13.7115 4.06623 13.694C3.90147 13.6764 3.7418 13.6264 3.5964 13.5468C3.45099 13.4672 3.32272 13.3596 3.21895 13.2301C3.1038 13.1006 3.01658 12.9486 2.96277 12.7837C2.90897 12.6188 2.88972 12.4445 2.90625 12.2718C2.92278 12.0991 2.97471 11.9317 3.05882 11.7801C3.14292 11.6284 3.25737 11.4958 3.39499 11.3905L9.68216 6.56473C9.91489 6.40658 10.1938 6.33116 10.4743 6.35053Z" fill="black"/>
</svg>
