<svg width="21" height="21" viewBox="0 0 21 21" fill="none" xmlns="http://www.w3.org/2000/svg">
<path d="M10.4466 13.9092C10.1528 13.9098 9.86803 13.8073 9.6418 13.6194L3.35464 8.57943C3.09785 8.36556 2.93637 8.05823 2.90571 7.72506C2.87506 7.39188 2.97774 7.06015 3.19117 6.80283C3.40461 6.54552 3.71131 6.38371 4.04381 6.35299C4.37631 6.32227 4.70737 6.42516 4.96415 6.63903L10.4466 11.0238L15.929 6.84063C16.0576 6.73597 16.2056 6.65781 16.3644 6.61065C16.5233 6.56348 16.6899 6.54825 16.8547 6.56581C17.0194 6.58337 17.1791 6.63339 17.3245 6.71299C17.4699 6.79259 17.5982 6.9002 17.7019 7.02963C17.8171 7.15919 17.9043 7.31118 17.9581 7.47608C18.0119 7.64098 18.0312 7.81524 18.0146 7.98794C17.9981 8.16064 17.9462 8.32806 17.8621 8.47971C17.778 8.63136 17.6635 8.76397 17.5259 8.86923L11.2387 13.695C11.006 13.8532 10.7271 13.9286 10.4466 13.9092Z" fill="white"/>
</svg>
