<svg width="16" height="9" viewBox="0 0 16 9" fill="none" xmlns="http://www.w3.org/2000/svg">
<path d="M7.80593 8.18951C7.51213 8.19008 7.2274 8.08755 7.00118 7.89971L0.714016 2.85971C0.457227 2.64584 0.295742 2.33851 0.265086 2.00533C0.234431 1.67215 0.337115 1.34042 0.55055 1.08311C0.763984 0.825794 1.07069 0.66398 1.40318 0.633261C1.73568 0.602543 2.06674 0.705436 2.32353 0.919307L7.80593 5.30411L13.2883 1.12091C13.417 1.01624 13.565 0.938085 13.7238 0.890921C13.8827 0.843757 14.0493 0.828519 14.214 0.846082C14.3788 0.863645 14.5385 0.913663 14.6839 0.993262C14.8293 1.07286 14.9576 1.18047 15.0613 1.30991C15.1765 1.43946 15.2637 1.59145 15.3175 1.75635C15.3713 1.92125 15.3905 2.09551 15.374 2.26821C15.3575 2.44091 15.3056 2.60833 15.2215 2.75998C15.1374 2.91163 15.0229 3.04424 14.8853 3.14951L8.59812 7.97531C8.36539 8.13346 8.08647 8.20887 7.80593 8.18951Z" fill="white"/>
</svg>
