<svg width="23" height="23" viewBox="0 0 23 23" fill="none" xmlns="http://www.w3.org/2000/svg">
<path d="M10.536 21.2541H12.8985C13.7985 21.2541 14.3798 20.6165 14.211 19.8384L13.8266 18.1416H9.60787L9.22351 19.8384C9.05476 20.5697 9.69225 21.2541 10.536 21.2541Z" stroke="white" stroke-width="1.3635" stroke-linecap="round" stroke-linejoin="round"/>
<path d="M13.8273 18.1324L15.4491 16.6887C16.3585 15.8824 16.396 15.3199 15.6741 14.4105L12.8148 10.7824C12.2148 10.023 11.2304 10.023 10.6304 10.7824L7.77102 14.4105C7.04915 15.3199 7.04914 15.9105 7.99601 16.6887L9.6179 18.1324" stroke="white" stroke-width="1.3635" stroke-linecap="round" stroke-linejoin="round"/>
<path d="M11.7178 10.585V12.9569" stroke="white" stroke-width="1.3635" stroke-linecap="round" stroke-linejoin="round"/>
<path d="M12.1973 4.84766H11.2598C10.7441 4.84766 10.3223 4.42578 10.3223 3.91016V2.97266C10.3223 2.45703 10.7441 2.03516 11.2598 2.03516H12.1973C12.7129 2.03516 13.1348 2.45703 13.1348 2.97266V3.91016C13.1348 4.42578 12.7129 4.84766 12.1973 4.84766Z" stroke="white" stroke-width="1.3635" stroke-linecap="round" stroke-linejoin="round"/>
<path d="M3.52539 13.4444H4.46289C4.97852 13.4444 5.40039 13.0225 5.40039 12.5069V11.5694C5.40039 11.0538 4.97852 10.6318 4.46289 10.6318H3.52539C3.00977 10.6318 2.58789 11.0538 2.58789 11.5694V12.5069C2.58789 13.0225 3.00977 13.4444 3.52539 13.4444Z" stroke="white" stroke-width="1.3635" stroke-linecap="round" stroke-linejoin="round"/>
<path d="M19.8945 13.4444H18.957C18.4414 13.4444 18.0195 13.0225 18.0195 12.5069V11.5694C18.0195 11.0538 18.4414 10.6318 18.957 10.6318H19.8945C20.4102 10.6318 20.832 11.0538 20.832 11.5694V12.5069C20.832 13.0225 20.4102 13.4444 19.8945 13.4444Z" stroke="white" stroke-width="1.3635" stroke-linecap="round" stroke-linejoin="round"/>
<path d="M10.3234 3.49707C6.75157 3.91895 3.97656 6.94706 3.97656 10.6314" stroke="white" stroke-width="1.3635" stroke-linecap="round" stroke-linejoin="round"/>
<path d="M19.4441 10.6314C19.4441 6.95643 16.6879 3.9377 13.1348 3.49707" stroke="white" stroke-width="1.3635" stroke-linecap="round" stroke-linejoin="round"/>
</svg>
