<svg width="23" height="24" viewBox="0 0 23 24" fill="none" xmlns="http://www.w3.org/2000/svg">
<path d="M17.335 7.46191V16.8369C17.335 17.4182 17.3162 17.9338 17.2506 18.3932C16.9787 20.8588 15.8162 21.5244 12.6475 21.5244H10.7725C7.60371 21.5244 6.44121 20.8588 6.16934 18.3932C6.10371 17.9338 6.08496 17.4182 6.08496 16.8369V7.46191C6.08496 6.88066 6.10371 6.36504 6.16934 5.90566C6.44121 3.44004 7.60371 2.77441 10.7725 2.77441H12.6475C15.8162 2.77441 16.9787 3.44004 17.2506 5.90566C17.3162 6.36504 17.335 6.88066 17.335 7.46191Z" stroke="white" stroke-width="1.35" stroke-linecap="round" stroke-linejoin="round"/>
<path d="M6.08398 16.8371C6.08398 17.4184 6.10273 17.934 6.16836 18.3934C6.03711 18.4027 5.91523 18.4027 5.77461 18.4027H5.45586C2.96211 18.4027 2.33398 17.7746 2.33398 15.2715V9.02773C2.33398 6.52461 2.96211 5.89648 5.45586 5.89648H5.77461C5.91523 5.89648 6.03711 5.89648 6.16836 5.90586C6.10273 6.36523 6.08398 6.88086 6.08398 7.46211V16.8371Z" stroke="white" stroke-width="1.35" stroke-linecap="round" stroke-linejoin="round"/>
<path d="M21.0844 9.02773V15.2715C21.0844 17.7746 20.4563 18.4027 17.9625 18.4027H17.6438C17.5031 18.4027 17.3813 18.4027 17.25 18.3934C17.3156 17.934 17.3344 17.4184 17.3344 16.8371V7.46211C17.3344 6.88086 17.3156 6.36523 17.25 5.90586C17.3813 5.89648 17.5031 5.89648 17.6438 5.89648H17.9625C20.4563 5.89648 21.0844 6.52461 21.0844 9.02773Z" stroke="white" stroke-width="1.35" stroke-linecap="round" stroke-linejoin="round"/>
</svg>
