<svg width="23" height="24" viewBox="0 0 23 24" fill="none" xmlns="http://www.w3.org/2000/svg">
<path d="M21.084 14.9424V9.31738C21.084 4.62988 19.209 2.75488 14.5215 2.75488H8.89648C4.20898 2.75488 2.33398 4.62988 2.33398 9.31738V14.9424C2.33398 19.6299 4.20898 21.5049 8.89648 21.5049H14.5215C19.209 21.5049 21.084 19.6299 21.084 14.9424Z" stroke="white" stroke-width="1.35" stroke-linecap="round" stroke-linejoin="round"/>
<path d="M2.82227 7.5459H20.5973" stroke="white" stroke-width="1.35" stroke-linecap="round" stroke-linejoin="round"/>
<path d="M8.44727 2.8584V7.41465" stroke="white" stroke-width="1.35" stroke-linecap="round" stroke-linejoin="round"/>
<path d="M14.9717 2.8584V6.99277" stroke="white" stroke-width="1.35" stroke-linecap="round" stroke-linejoin="round"/>
<path d="M9.60059 14.4263V13.3013C9.60059 11.8575 10.6225 11.2669 11.8693 11.9888L12.8443 12.5513L13.8193 13.1138C15.0662 13.8356 15.0662 15.0169 13.8193 15.7388L12.8443 16.3013L11.8693 16.8638C10.6225 17.5856 9.60059 16.995 9.60059 15.5513V14.4263V14.4263Z" stroke="white" stroke-width="1.35" stroke-miterlimit="10" stroke-linecap="round" stroke-linejoin="round"/>
</svg>
